<?xml version="1.0" encoding="UTF-8"?>
<svg width="94px" height="94px" viewBox="0 0 94 94" version="1.1" xmlns="http://www.w3.org/2000/svg" xmlns:xlink="http://www.w3.org/1999/xlink">
    <!-- Generator: Sketch 48.2 (47327) - http://www.bohemiancoding.com/sketch -->
    <title>带宽_白</title>
    <desc>Created with Sketch.</desc>
    <defs>
        <filter x="-15.0%" y="-15.0%" width="130.0%" height="130.0%" filterUnits="objectBoundingBox" id="filter-1">
            <feGaussianBlur stdDeviation="4" in="SourceGraphic"></feGaussianBlur>
        </filter>
        <path d="M3,0 L77,0 C78.7,0 80,1.3 80,3 L80,77 C80,78.7 78.7,80 77,80 L3,80 C1.3,80 0,78.7 0,77 L0,3 C0,1.3 1.3,0 3,0 Z" id="path-2"></path>
    </defs>
    <g id="Page-1" stroke="none" stroke-width="1" fill="none" fill-rule="evenodd">
        <g id="icon_白" transform="translate(-152.000000, -23.000000)">
            <g id="带宽" transform="translate(159.000000, 30.000000)">
                <path d="M3,0 L77,0 C78.7,0 80,1.3 80,3 L80,77 C80,78.7 78.7,80 77,80 L3,80 C1.3,80 0,78.7 0,77 L0,3 C0,1.3 1.3,0 3,0 Z" id="XMLID_165_" fill="#155D93" opacity="0.240545743" filter="url(#filter-1)"></path>
                <g id="XMLID_165_-Copy">
                    <use fill="#BBE1FF" fill-rule="evenodd" xlink:href="#path-2"></use>
                    <path stroke="#A2D4FC" stroke-width="1" d="M3,0.5 C1.57614237,0.5 0.5,1.57614237 0.5,3 L0.5,77 C0.5,78.4238576 1.57614237,79.5 3,79.5 L77,79.5 C78.4238576,79.5 79.5,78.4238576 79.5,77 L79.5,3 C79.5,1.57614237 78.4238576,0.5 77,0.5 L3,0.5 Z"></path>
                </g>
                <path d="M57,19 C59.8,19 62,21.2 62,24 L62,47 L60,47 L60,24 C60,22.3 58.7,21 57,21 L24,21 C22.3,21 21,22.3 21,24 L21,57 C21,58.7 22.3,60 24,60 L42,60 L42,62 L24,62 C21.2,62 19,59.8 19,57 L19,24 C19,21.2 21.2,19 24,19 L57,19 Z M50.8,38.1 C48.1,35.5 44.5,33.8 40.5,33.7 C36.4,33.7 32.8,35.3 30.2,38 C29.9,38.3 29.6,38.4 29.3,38.4 C28.6,38.4 28.1,37.9 28.1,37.2 C28.1,36.8 28.3,36.5 28.6,36.3 C31.7,33.3 35.9,31.4 40.5,31.4 C45.1,31.4 49.3,33.3 52.3,36.3 C52.6,36.5 52.8,36.8 52.8,37.2 C52.8,37.9 52.3,38.4 51.6,38.4 C51.3,38.4 51,38.3 50.8,38.1 Z M51.7,49.6 L49.3,51.9 L60.9,51.9 C61.5,51.9 61.9,52.3 61.9,52.9 C61.9,53.5 61.5,53.9 60.9,53.9 L46.9,53.9 C46.6,53.9 46.4,53.8 46.2,53.6 C46,53.4 45.9,53.1 45.9,52.9 C45.9,52.6 46.1,52.3 46.4,52.1 L50.3,48.2 C50.7,47.8 51.3,47.8 51.7,48.2 C52.1,48.6 52.1,49.2 51.7,49.6 Z M62,57 C62,57.4 61.8,57.7 61.5,57.9 L57.6,61.8 C57.2,62.2 56.6,62.2 56.2,61.8 C55.8,61.4 55.8,60.8 56.2,60.4 L58.6,58.1 L47,58.1 C46.4,58.1 46,57.7 46,57.1 C46,56.6 46.4,56.1 47,56.1 L61,56.1 C61,56.1 61.1,56.1 61.2,56.1 C61.4,56.1 61.6,56.2 61.7,56.3 C61.9,56.5 62,56.8 62,57 Z M47.7,42.4 C47.7,43 47.2,43.6 46.7,43.6 C46.3,43.6 46,43.4 45.8,43.2 C44.5,41.8 42.7,41 40.6,41 C38.5,41 36.7,41.8 35.4,43.2 C35.2,43.4 34.9,43.5 34.6,43.5 C33.9,43.5 33.4,43 33.4,42.3 C33.4,42 33.5,41.7 33.7,41.5 C35.4,39.7 37.8,38.6 40.5,38.6 C43.1,38.6 45.6,39.7 47.3,41.5 C47.5,41.7 47.7,42 47.7,42.4 Z M40.5,46.4 C41.5,46.4 42.3,47.2 42.3,48.2 C42.3,49.2 41.5,50 40.5,50 C39.5,50 38.7,49.2 38.7,48.2 C38.7,47.2 39.5,46.4 40.5,46.4 Z" id="Combined-Shape" fill="#FFFFFF"></path>
            </g>
        </g>
    </g>
</svg>