<?xml version="1.0" encoding="UTF-8"?>
<svg width="94px" height="94px" viewBox="0 0 94 94" version="1.1" xmlns="http://www.w3.org/2000/svg" xmlns:xlink="http://www.w3.org/1999/xlink">
    <!-- Generator: Sketch 48.2 (47327) - http://www.bohemiancoding.com/sketch -->
    <title>总存储量_白</title>
    <desc>Created with Sketch.</desc>
    <defs>
        <filter x="-11.2%" y="-11.2%" width="122.5%" height="122.5%" filterUnits="objectBoundingBox" id="filter-1">
            <feGaussianBlur stdDeviation="3" in="SourceGraphic"></feGaussianBlur>
        </filter>
        <path d="M3,0 L77,0 C78.7,0 80,1.3 80,3 L80,77 C80,78.7 78.7,80 77,80 L3,80 C1.3,80 0,78.7 0,77 L0,3 C0,1.3 1.3,0 3,0 Z" id="path-2"></path>
    </defs>
    <g id="Page-1" stroke="none" stroke-width="1" fill="none" fill-rule="evenodd">
        <g id="icon_白" transform="translate(-42.000000, -23.000000)">
            <g id="总存储量" transform="translate(49.000000, 30.000000)">
                <path d="M3,0 L77,0 C78.7,0 80,1.3 80,3 L80,77 C80,78.7 78.7,80 77,80 L3,80 C1.3,80 0,78.7 0,77 L0,3 C0,1.3 1.3,0 3,0 Z" id="XMLID_76_-Copy" fill="#155D93" opacity="0.242470562" filter="url(#filter-1)"></path>
                <g id="XMLID_76_">
                    <use fill="#BBE1FF" fill-rule="evenodd" xlink:href="#path-2"></use>
                    <path stroke="#A2D4FC" stroke-width="1" d="M3,0.5 C1.57614237,0.5 0.5,1.57614237 0.5,3 L0.5,77 C0.5,78.4238576 1.57614237,79.5 3,79.5 L77,79.5 C78.4238576,79.5 79.5,78.4238576 79.5,77 L79.5,3 C79.5,1.57614237 78.4238576,0.5 77,0.5 L3,0.5 Z"></path>
                </g>
                <path d="M41,40 L25,40 L25,42 L41,42 L41,40 Z M25,54 L37,54 L37,52 L25,52 L25,54 Z M23,58 L23,27 L21,22.2 C21,21.2 22.2,21 23.2,21 L57.8,21 C58.8,21 60,21.2 60,22.2 L58,27 L58,42 L60,42 L60,27 L62,22 C62,20.4 60.7,19 59,19 L22,19 C20.4,19 19,20.3 19,22 L21,27 L21,59 C21,60.6 22.4,62 24,62 L44,62 L44,60 L25,60 C24,60 23,59 23,58 Z M25,46 L25,48 L31,48 L31,46 L25,46 Z M54,43 C49.4,43 46,44.5 46,46.5 C46,46.7 46,46.8 46.1,47 L46,47 L46,49.9 C46,49.9 46,49.9 46,50 C46,50.1 46,50 46,50.1 L46,54 C46,54 46,54 46,54.1 C46,54.2 46,54.1 46,54.2 L46,58.1 C46,58.1 46,58.1 46,58.2 C46,58.3 46,58.2 46,58.3 L46,59.2 L46.2,59.2 C47,61 50.1,62.2 54,62.2 C57.9,62.2 60.9,61 61.8,59.2 L62,59.2 L62,58.2 C62,58.2 62,58.2 62,58.2 C62,58.2 62,58.2 62,58.2 L62,54.2 C62,54.2 62,54.2 62,54.2 C62,54.2 62,54.2 62,54.2 L62,50.2 C62,50.2 62,50.2 62,50.2 C62,50.2 62,50.2 62,50.2 L62,47.2 L61.9,47.2 C62,47 62,46.9 62,46.7 C62,44.5 58.6,43 54,43 Z M54,45 C57.7,45 60,45.9 60,46.5 C60,47.1 57.7,48 54,48 C50.3,48 48,47.1 48,46.5 C48,45.9 50.3,45 54,45 Z M60,57.8 C59.5,58.8 57.3,60 54,60 C50.7,60 48.5,58.8 48.1,57.8 L48,57.8 L48,56.7 C49.4,57.5 51.6,58 54,58 C56.4,58 58.6,57.5 60,56.7 L60,57.8 Z M60,53.8 C59.5,54.8 57.3,56 54,56 C50.7,56 48.5,54.8 48.1,53.8 L48,53.8 L48,52.7 C49.4,53.5 51.6,54 54,54 C56.4,54 58.6,53.5 60,52.7 L60,53.8 Z M60,49.8 C59.5,50.8 57.3,52 54,52 C50.7,52 48.5,50.8 48.1,49.8 L48,49.8 L48,48.8 C49.4,49.5 51.6,49.9 54,49.9 C56.4,49.9 58.6,49.5 60,48.8 L60,49.8 Z M55,28 L25,28 L25,30 L55,30 L55,28 Z M25,34 L25,36 L33,36 L33,34 L25,34 Z" id="XMLID_87_" fill="#FFFFFF"></path>
            </g>
        </g>
    </g>
</svg>