<?xml version="1.0" encoding="UTF-8"?>
<svg width="94px" height="94px" viewBox="0 0 94 94" version="1.1" xmlns="http://www.w3.org/2000/svg" xmlns:xlink="http://www.w3.org/1999/xlink">
    <!-- Generator: Sketch 48.2 (47327) - http://www.bohemiancoding.com/sketch -->
    <title>总文件数</title>
    <desc>Created with Sketch.</desc>
    <defs>
        <filter x="-15.0%" y="-15.0%" width="130.0%" height="130.0%" filterUnits="objectBoundingBox" id="filter-1">
            <feGaussianBlur stdDeviation="4" in="SourceGraphic"></feGaussianBlur>
        </filter>
        <path d="M3.5,0.5 L77.5,0.5 C79.2,0.5 80.5,1.8 80.5,3.5 L80.5,77.5 C80.5,79.2 79.2,80.5 77.5,80.5 L3.5,80.5 C1.8,80.5 0.5,79.2 0.5,77.5 L0.5,3.5 C0.5,1.8 1.8,0.5 3.5,0.5 Z" id="path-2"></path>
    </defs>
    <g id="Page-1" stroke="none" stroke-width="1" fill="none" fill-rule="evenodd">
        <g id="icon_黑" transform="translate(-592.000000, -23.000000)">
            <g id="总文件数" transform="translate(598.000000, 30.000000)">
                <path d="M3.5,0.5 L77.5,0.5 C79.2,0.5 80.5,1.8 80.5,3.5 L80.5,77.5 C80.5,79.2 79.2,80.5 77.5,80.5 L3.5,80.5 C1.8,80.5 0.5,79.2 0.5,77.5 L0.5,3.5 C0.5,1.8 1.8,0.5 3.5,0.5 Z" id="XMLID_242_" fill="#000000" opacity="0.240545743" filter="url(#filter-1)"></path>
                <g id="XMLID_242_-Copy">
                    <use fill="#414D56" fill-rule="evenodd" xlink:href="#path-2"></use>
                    <path stroke="#52626D" stroke-width="1" d="M3.5,1 C2.07614237,1 1,2.07614237 1,3.5 L1,77.5 C1,78.9238576 2.07614237,80 3.5,80 L77.5,80 C78.9238576,80 80,78.9238576 80,77.5 L80,3.5 C80,2.07614237 78.9238576,1 77.5,1 L3.5,1 Z"></path>
                </g>
                <path d="M56.5,24.5 L35.1,24.5 L31.5,19.5 L23.5,19.5 C20.7,19.5 18.5,21.7 18.5,24.5 L18.5,57.5 C18.5,60.3 20.7,62.5 23.5,62.5 L56.5,62.5 C59.3,62.5 61.5,60.3 61.5,57.5 L61.5,29.5 C61.5,26.7 59.3,24.5 56.5,24.5 Z M59.5,33.5 L20.5,33.5 L20.5,35.5 L59.5,35.5 L59.5,38.5 C59.5,38.5 59.5,38.6 59.5,38.6 L59.5,57.5 C59.5,59.2 58.2,60.5 56.5,60.5 L23.5,60.5 C21.8,60.5 20.5,59.2 20.5,57.5 L20.5,26.5 L20.5,24.5 C20.5,22.8 21.8,21.5 23.5,21.5 L30.5,21.5 L34.5,26.5 L56.5,26.5 C58.2,26.5 59.5,27.8 59.5,29.5 L59.5,33.5 Z" id="XMLID_223_" fill="#8492A6"></path>
            </g>
        </g>
    </g>
</svg>