<?xml version="1.0" encoding="UTF-8"?>
<svg width="94px" height="94px" viewBox="0 0 94 94" version="1.1" xmlns="http://www.w3.org/2000/svg" xmlns:xlink="http://www.w3.org/1999/xlink">
    <!-- Generator: Sketch 48.2 (47327) - http://www.bohemiancoding.com/sketch -->
    <title>总流入流量_白</title>
    <desc>Created with Sketch.</desc>
    <defs>
        <filter x="-15.0%" y="-15.0%" width="130.0%" height="130.0%" filterUnits="objectBoundingBox" id="filter-1">
            <feGaussianBlur stdDeviation="4" in="SourceGraphic"></feGaussianBlur>
        </filter>
        <path d="M3,0.8 L77,0.8 C78.7,0.8 80,2.1 80,3.8 L80,77.8 C80,79.5 78.7,80.8 77,80.8 L3,80.8 C1.3,80.8 0,79.5 0,77.8 L0,3.8 C0,2.1 1.3,0.8 3,0.8 Z" id="path-2"></path>
    </defs>
    <g id="Page-1" stroke="none" stroke-width="1" fill="none" fill-rule="evenodd">
        <g id="icon_白" transform="translate(-262.000000, -23.000000)">
            <g id="总流入流量" transform="translate(269.000000, 29.000000)">
                <path d="M3,0.8 L77,0.8 C78.7,0.8 80,2.1 80,3.8 L80,77.8 C80,79.5 78.7,80.8 77,80.8 L3,80.8 C1.3,80.8 0,79.5 0,77.8 L0,3.8 C0,2.1 1.3,0.8 3,0.8 Z" id="XMLID_138_" fill="#155D93" opacity="0.240545743" filter="url(#filter-1)"></path>
                <g id="XMLID_138_-Copy">
                    <use fill="#BBE1FF" fill-rule="evenodd" xlink:href="#path-2"></use>
                    <path stroke="#A2D4FC" stroke-width="1" d="M3,1.3 C1.57614237,1.3 0.5,2.37614237 0.5,3.8 L0.5,77.8 C0.5,79.2238576 1.57614237,80.3 3,80.3 L77,80.3 C78.4238576,80.3 79.5,79.2238576 79.5,77.8 L79.5,3.8 C79.5,2.37614237 78.4238576,1.3 77,1.3 L3,1.3 Z"></path>
                </g>
                <path d="M60,60.8 L46,60.8 C45.4,60.8 45,61.2 45,61.8 C45,62.4 45.4,62.8 46,62.8 L60,62.8 C60.6,62.8 61,62.4 61,61.8 C61,61.3 60.5,60.8 60,60.8 Z M60,56.8 L48.4,56.8 L50.8,54.4 C51.2,54 51.2,53.4 50.8,53 C50.4,52.6 49.8,52.6 49.4,53 L45.3,57.1 C45.3,57.1 45.3,57.1 45.3,57.1 L45.2,57.2 C44.8,57.6 44.8,58.2 45.2,58.6 C45.5,58.9 46,59 46.4,58.8 L60,58.8 C60.6,58.8 61,58.4 61,57.8 C61,57.3 60.5,56.8 60,56.8 Z M56,19.8 L23,19.8 C20.2,19.8 18,22 18,24.8 L18,57.8 C18,60.6 20.2,62.8 23,62.8 L41,62.8 L41,60.8 L23,60.8 C21.3,60.8 20,59.5 20,57.8 L20,24.8 C20,23.1 21.3,21.8 23,21.8 L56,21.8 C57.7,21.8 59,23.1 59,24.8 L59,52.8 L61,52.8 L61,24.8 C61,22 58.7,19.8 56,19.8 Z M47.5,41.6 C47.7,42 48.1,42.3 48.5,42.3 L54,42.3 C54.5,42.3 55,41.9 55,41.3 C55,40.8 54.6,40.3 54,40.3 L49.1,40.3 L46.9,34.3 C46.9,34.2 46.8,34.2 46.8,34.1 C46.6,33.8 46.2,33.6 45.8,33.7 C45.4,33.8 45.1,34.1 45.1,34.5 L42.1,48.2 L38.4,29.6 C38.3,29.1 37.9,28.8 37.5,28.8 C37,28.8 36.6,29.1 36.5,29.6 L33.2,44.6 L31.8,40.9 C31.7,40.5 31.3,40.1 30.9,40.1 L25,40.1 C24.5,40.1 24,40.5 24,41.1 C24,41.4 24.1,41.6 24.3,41.8 C24.5,42 24.7,42.1 25,42.1 L30.2,42.1 L32.5,48.3 C32.6,48.7 33,49 33.5,49 C33.9,49 34.3,48.7 34.4,48.2 L37.4,34.6 L41,53 C41.1,53.5 41.5,53.8 42,53.8 C42.5,53.8 42.9,53.5 43,53 L46.2,38 L47.5,41.6 Z" id="XMLID_144_" fill="#FFFFFF" fill-rule="nonzero"></path>
            </g>
        </g>
    </g>
</svg>