<?xml version="1.0" encoding="UTF-8"?>
<svg width="94px" height="94px" viewBox="0 0 94 94" version="1.1" xmlns="http://www.w3.org/2000/svg" xmlns:xlink="http://www.w3.org/1999/xlink">
    <!-- Generator: Sketch 48.2 (47327) - http://www.bohemiancoding.com/sketch -->
    <title>总流出流量</title>
    <desc>Created with Sketch.</desc>
    <defs>
        <filter x="-15.0%" y="-15.0%" width="130.0%" height="130.0%" filterUnits="objectBoundingBox" id="filter-1">
            <feGaussianBlur stdDeviation="4" in="SourceGraphic"></feGaussianBlur>
        </filter>
        <path d="M3,0.1 L77,0.1 C78.7,0.1 80,1.4 80,3.1 L80,77.1 C80,78.8 78.7,80.1 77,80.1 L3,80.1 C1.3,80.1 0,78.8 0,77.1 L0,3.1 C0,1.5 1.3,0.1 3,0.1 Z" id="path-2"></path>
    </defs>
    <g id="Page-1" stroke="none" stroke-width="1" fill="none" fill-rule="evenodd">
        <g id="icon_黑" transform="translate(-372.000000, -23.000000)">
            <g id="总流出流量" transform="translate(379.000000, 30.000000)">
                <path d="M3,0.1 L77,0.1 C78.7,0.1 80,1.4 80,3.1 L80,77.1 C80,78.8 78.7,80.1 77,80.1 L3,80.1 C1.3,80.1 0,78.8 0,77.1 L0,3.1 C0,1.5 1.3,0.1 3,0.1 Z" id="XMLID_176_" fill="#000000" opacity="0.240545743" filter="url(#filter-1)"></path>
                <g id="XMLID_176_-Copy">
                    <use fill="#414D56" fill-rule="evenodd" xlink:href="#path-2"></use>
                    <path stroke="#52626D" stroke-width="1" d="M3,0.6 C1.61283869,0.6 0.5,1.73871866 0.5,3.1 L0.5,77.1 C0.5,78.5238576 1.57614237,79.6 3,79.6 L77,79.6 C78.4238576,79.6 79.5,78.5238576 79.5,77.1 L79.5,3.1 C79.5,1.67614237 78.4238576,0.6 77,0.6 L3,0.6 Z"></path>
                </g>
                <path d="M59.9,60.2 L46,60.2 C45.5,60.2 45,60.6 45,61.2 C45,61.7 45.4,62.2 46,62.2 L59.9,62.2 C60.4,62.2 60.9,61.8 60.9,61.2 C60.8,60.6 60.4,60.2 59.9,60.2 Z M60.6,56.5 C60.6,56.5 60.6,56.5 60.6,56.5 L56.5,52.4 C56.1,52 55.5,52 55.1,52.4 C54.7,52.8 54.7,53.4 55.1,53.8 L57.5,56.2 L46,56.2 C45.5,56.2 45,56.6 45,57.2 C45,57.7 45.4,58.2 46,58.2 L59.6,58.2 C60,58.4 60.4,58.3 60.7,58 C61.1,57.6 61.1,57 60.7,56.6 L60.6,56.5 Z M56,19.1 L23,19.1 C20.2,19.1 18,21.3 18,24.1 L18,57.1 C18,59.9 20.2,62.1 23,62.1 L41,62.1 L41,60.1 L23,60.1 C21.3,60.1 20,58.8 20,57.1 L20,24.1 C20,22.4 21.3,21.1 23,21.1 L56,21.1 C57.7,21.1 59,22.4 59,24.1 L59,50.1 L61,50.1 L61,24.1 C61,21.4 58.7,19.1 56,19.1 Z M47.5,40.9 C47.7,41.3 48.1,41.6 48.5,41.6 L54,41.6 C54.5,41.6 55,41.2 55,40.6 C55,40.1 54.6,39.6 54,39.6 L49.1,39.6 L46.9,33.6 C46.9,33.5 46.8,33.5 46.8,33.4 C46.6,33.1 46.2,32.9 45.8,33 C45.4,33.1 45.1,33.4 45.1,33.8 L42.1,47.5 L38.3,29 C38.2,28.5 37.8,28.2 37.4,28.2 C36.9,28.2 36.5,28.5 36.4,29 L33.1,44 L31.7,40.3 C31.6,39.9 31.2,39.5 30.8,39.5 L25,39.5 C24.5,39.5 24,39.9 24,40.5 C24,40.8 24.1,41 24.3,41.2 C24.5,41.4 24.7,41.5 25,41.5 L30.2,41.5 L32.5,47.7 C32.6,48.1 33,48.4 33.5,48.4 C33.9,48.4 34.3,48.1 34.4,47.6 L37.4,34 L41,52.5 C41.1,53 41.5,53.3 42,53.3 C42.5,53.3 42.9,53 43,52.5 L46.2,37.5 L47.5,40.9 Z" id="XMLID_182_" fill="#8492A6" fill-rule="nonzero"></path>
            </g>
        </g>
    </g>
</svg>