<?xml version="1.0" encoding="UTF-8"?>
<svg width="164px" height="32px" viewBox="0 0 164 32" version="1.1" xmlns="http://www.w3.org/2000/svg" xmlns:xlink="http://www.w3.org/1999/xlink">
    <!-- Generator: Sketch 42 (36781) - http://www.bohemiancoding.com/sketch -->
    <title>Artboard 2</title>
    <desc>Created with Sketch.</desc>
    <defs></defs>
    <g id="Page-1" stroke="none" stroke-width="1" fill="none" fill-rule="evenodd">
        <g id="Artboard-2" fill-rule="nonzero" fill="#FFFFFF">
            <g id="BAISHAN_logo" transform="translate(2.000000, 2.000000)">
                <g id="Group" transform="translate(0.000000, 0.297436)">
                    <polygon id="Shape" points="23.0298507 28.2861538 28.3432836 28.2861538 18.0298507 0.0594871795 10.3283582 0.0594871795 0.0149253731 28.2861538 5.32835821 28.2861538 12.4179104 8.87846154 15.9402985 8.87846154"></polygon>
                    <polygon id="Shape" points="15.3731343 19.4671795 12.9701493 19.4671795 9.74626866 28.2861538 18.5970149 28.2861538"></polygon>
                </g>
                <path d="M36.4477612,12.5220513 L36.4477612,1.78461538 L39.8059701,1.78461538 C39.880597,1.53179487 39.9850746,1.18974359 40.119403,0.728717949 C40.1940299,0.416410256 40.238806,0.193333333 40.2686567,0.0446153846 L42.2089552,0.208205128 C42.1791045,0.356923077 42.0895522,0.58 41.9402985,0.892307692 C41.8358209,1.27897436 41.8059701,1.57641026 41.7313433,1.78461538 L47.1940299,1.78461538 L47.1940299,12.5220513 L45.5074627,12.5220513 L45.5074627,11.7338462 L38.0447761,11.7338462 L38.0447761,12.5220513 L36.4477612,12.5220513 Z M38.0746269,3.30153846 L38.0746269,6.02307692 L45.5373134,6.02307692 L45.5373134,3.30153846 L38.0746269,3.30153846 Z M38.0746269,7.49538462 L38.0746269,10.3210256 L45.5373134,10.3210256 L45.5373134,7.49538462 L38.0746269,7.49538462 Z" id="Shape"></path>
                <polygon id="Shape" points="49.7164179 11.525641 49.7164179 2.0374359 51.4029851 2.0374359 51.4029851 10.1128205 54.4477612 10.1128205 54.4477612 0.223076923 56.1791045 0.223076923 56.1791045 10.1128205 59.2238806 10.1128205 59.2238806 2.05230769 60.8507463 2.05230769 60.8507463 12.5220513 59.2238806 12.5220513 59.2238806 11.525641 49.7164179 11.525641"></polygon>
                <path d="M62.6119403,6.29076923 L62.6119403,4.72923077 L74.5970149,4.72923077 L74.5970149,6.29076923 L68.9253731,6.29076923 C67.9850746,7.58461538 66.9552239,8.87846154 65.8208955,10.1723077 C66.4179104,10.1723077 67.5074627,10.1425641 69.0746269,10.0682051 C70.1641791,10.0384615 70.9552239,10.0087179 71.4925373,10.0087179 C70.9701493,9.25025641 70.4179104,8.55128205 69.8656716,7.91179487 L71.1791045,7.07897436 C72.2985075,8.4025641 73.5074627,9.86 74.8059701,11.4215385 L73.3880597,12.3584615 C73.1492537,12.0461538 72.880597,11.6892308 72.5970149,11.3174359 C71.4776119,11.3471795 69.6268657,11.4364103 67.0746269,11.5851282 C66.5074627,11.6148718 66.1044776,11.6297436 65.8656716,11.6297436 C65.5522388,11.6594872 65.1343284,11.7189744 64.6119403,11.7933333 C64.3283582,11.8230769 64.119403,11.8528205 63.9701493,11.8528205 L63.1791045,10.3358974 C63.7761194,9.97897436 64.2686567,9.5774359 64.641791,9.13128205 C65.3432836,8.32820513 66.0447761,7.39128205 66.7462687,6.30564103 L62.6119403,6.30564103 L62.6119403,6.29076923 Z M63.7164179,2.40923077 L63.7164179,0.847692308 L73.9552239,0.847692308 L73.9552239,2.40923077 L63.7164179,2.40923077 Z" id="Shape"></path>
                <path d="M76.9253731,2.30512821 C76.8955224,1.81435897 76.8208955,1.33846154 76.7164179,0.892307692 C78.0149254,0.862564103 79.6119403,0.728717949 81.5074627,0.520512821 L81.8208955,1.88871795 L81.6716418,1.88871795 C81.1791045,1.91846154 80.6119403,1.99282051 79.9850746,2.09692308 L79.9850746,3.82205128 L81.6716418,3.82205128 L81.6716418,5.23487179 L79.9850746,5.23487179 L79.9850746,6.64769231 L80.4029851,6.17179487 C80.5820896,6.30564103 80.880597,6.54358974 81.2985075,6.84102564 C81.6865672,7.15333333 81.9701493,7.39128205 82.1343284,7.52512821 L81.1343284,8.62564103 C80.6865672,8.16461538 80.2985075,7.8225641 79.9850746,7.58461538 L79.9850746,12.5517949 L78.5074627,12.5517949 L78.5074627,7.68871795 C78.0895522,8.7 77.6865672,9.35435897 77.0895522,10.2020513 L76.3731343,8.95282051 C77.0746269,8.01589744 77.8208955,6.61794872 78.358209,5.23487179 L76.6268657,5.23487179 L76.6268657,3.82205128 L78.5223881,3.82205128 L78.5223881,2.20102564 C78.0447761,2.27538462 77.5223881,2.30512821 76.9253731,2.30512821 Z M81.5522388,9.90461538 L81.3880597,8.43230769 L86.0149254,8.01589744 L86.0149254,0.163589744 L87.5820896,0.163589744 L87.5820896,7.85230769 L89.2089552,7.70358974 L89.2686567,9.22051282 L87.5820896,9.32461538 L87.5820896,12.5666667 L86.0149254,12.5666667 L86.0149254,9.47333333 L81.5522388,9.90461538 Z M84.119403,7.33179487 C83.7014925,6.98974359 83.0746269,6.48410256 82.238806,5.81487179 C82.0895522,5.68102564 81.9701493,5.57692308 81.8656716,5.5025641 L82.8059701,4.50615385 C82.9850746,4.65487179 83.2537313,4.83333333 83.5970149,5.08615385 C84.1940299,5.53230769 84.7014925,5.91897436 85.119403,6.23128205 L84.119403,7.33179487 Z M84.7014925,4.71435897 C84.3731343,4.40205128 83.8358209,3.91128205 83.0746269,3.25692308 C82.7761194,3.04871795 82.5820896,2.85538462 82.4328358,2.72153846 L83.3283582,1.72512821 C84.2985075,2.48358974 85.119403,3.12307692 85.7462687,3.61384615 L84.7014925,4.71435897 Z" id="Shape"></path>
                <path d="M90.9701493,3.7774359 L90.9701493,2.36461538 L92.3880597,2.36461538 L92.3880597,0.163589744 L93.9104478,0.163589744 L93.9104478,2.36461538 L95.119403,2.36461538 L95.119403,3.7774359 L93.9104478,3.7774359 L93.9104478,5.91897436 L95.1791045,5.65128205 C95.1791045,6.17179487 95.1940299,6.6774359 95.2238806,7.16820513 C94.8059701,7.2425641 94.358209,7.33179487 93.9104478,7.43589744 L93.9104478,10.945641 C93.9402985,11.9123077 93.4925373,12.4328205 92.5373134,12.4625641 C92.0895522,12.5071795 91.6567164,12.5220513 91.2238806,12.5220513 C91.1791045,12.3138462 91.1343284,12.0015385 91.0597015,11.5851282 C90.9850746,11.3323077 90.9552239,11.1835897 90.9552239,11.1092308 L91.8507463,11.1092308 C92.238806,11.1092308 92.4029851,10.9010256 92.3731343,10.4846154 L92.3731343,7.8225641 L90.8955224,8.17948718 L90.7910448,6.49897436 C91.0447761,6.46923077 91.4626866,6.39487179 92.0597015,6.29076923 C92.1940299,6.26102564 92.2985075,6.23128205 92.3731343,6.23128205 L92.3731343,3.7774359 L90.9701493,3.7774359 Z M95.5373134,3.34615385 L95.5373134,1.93333333 L98.4776119,1.93333333 L98.4776119,0.104102564 L100.059701,0.104102564 L100.059701,1.93333333 L103.19403,1.93333333 L103.19403,3.34615385 L100.059701,3.34615385 L100.059701,4.96717949 L102.835821,4.96717949 L102.835821,6.38 C102.164179,7.88205128 101.38806,9.02717949 100.462687,9.84512821 C101.313433,10.365641 102.522388,10.9158974 103.746269,11.2282051 C103.671642,11.3769231 103.507463,11.7338462 103.358209,11.8676923 C103.089552,12.105641 102.895522,12.3733333 102.776119,12.5517949 C101.373134,11.9866667 100.208955,11.4215385 99.2537313,10.8117949 C98.3432836,11.3769231 97.0149254,11.9866667 95.3134328,12.6558974 C95.0597015,12.2097436 94.7910448,11.7338462 94.4626866,11.2430769 C95.9402985,10.8117949 97.119403,10.3507692 98.0298507,9.83025641 C97.2238806,8.95282051 96.5074627,7.86717949 95.880597,6.57333333 L96.5074627,6.30564103 L95.6119403,6.30564103 L95.6119403,4.9374359 L98.4477612,4.9374359 L98.4477612,3.31641026 L95.5373134,3.31641026 L95.5373134,3.34615385 Z M101.223881,6.33538462 L97.3880597,6.33538462 C97.9104478,7.34666667 98.5373134,8.22410256 99.2835821,8.95282051 C100.119403,8.22410256 100.761194,7.34666667 101.223881,6.33538462 Z" id="Shape"></path>
                <g id="Group" transform="translate(36.417910, 17.846154)">
                    <path d="M5.02985075,10.7374359 L0,10.7374359 L0,0.148717949 L4.7761194,0.148717949 C7.04477612,0.223076923 8.26865672,1.07076923 8.43283582,2.70666667 C8.40298507,4.04512821 7.68656716,4.84820513 6.28358209,5.16051282 L6.28358209,5.20512821 C7.88059701,5.47282051 8.76119403,6.32051282 8.89552239,7.71846154 C8.91044776,9.72615385 7.6119403,10.7374359 5.02985075,10.7374359 Z M4.40298507,1.53179487 L1.8358209,1.53179487 L1.8358209,4.59538462 L4.40298507,4.59538462 C5.76119403,4.56564103 6.46268657,4.03025641 6.49253731,3.00410256 C6.46268657,2.0225641 5.76119403,1.53179487 4.40298507,1.53179487 Z M4.67164179,5.97846154 L1.85074627,5.97846154 L1.85074627,9.39897436 L4.73134328,9.39897436 C6.19402985,9.39897436 6.92537313,8.81897436 6.92537313,7.65897436 C6.80597015,6.57333333 6.05970149,6.00820513 4.67164179,5.97846154 Z" id="Shape"></path>
                    <polygon id="Shape" points="21.6716418 10.7374359 21.6716418 0.148717949 23.5074627 0.148717949 23.5074627 10.7374359"></polygon>
                    <path d="M25.3880597,7.51025641 L27.2238806,7.10871795 C27.5074627,8.77435897 28.4776119,9.59230769 30.1492537,9.5625641 C31.5074627,9.53282051 32.238806,8.9825641 32.3432836,7.92666667 C32.4477612,7.18307692 31.8208955,6.60307692 30.4626866,6.18666667 C29.9104478,6.02307692 29.4179104,5.90410256 29,5.82974359 C26.7761194,5.38358974 25.7014925,4.40205128 25.8059701,2.87025641 C25.9850746,1.07076923 27.2686567,0.104102564 29.6716418,0.0148717949 C32.1492537,-0.0148717949 33.6119403,0.951794872 34.0746269,2.92974359 L32.1940299,3.34615385 C31.9850746,2.11179487 31.1791045,1.50205128 29.7910448,1.50205128 C28.5373134,1.53179487 27.8507463,1.99282051 27.7462687,2.88512821 C27.6119403,3.64358974 28.3880597,4.16410256 30.1044776,4.47641026 C30.9104478,4.68461538 31.5074627,4.86307692 31.9253731,5.04153846 C33.5671642,5.62153846 34.3731343,6.55846154 34.3283582,7.85230769 C34.2238806,9.83025641 32.8507463,10.8564103 30.1940299,10.9158974 C27.4477612,10.9158974 25.8358209,9.78564103 25.3880597,7.51025641 Z" id="Shape"></path>
                    <polygon id="Shape" points="45.4776119 10.7374359 43.5970149 10.7374359 43.5970149 6.18666667 38.1044776 6.18666667 38.1044776 10.7374359 36.2686567 10.7374359 36.2686567 0.148717949 38.1044776 0.148717949 38.1044776 4.59538462 43.5970149 4.59538462 43.5970149 0.148717949 45.4776119 0.148717949 45.4776119 10.7374359"></polygon>
                    <path d="M58.6119403,0.193333333 L60.761194,0.193333333 C63.761194,4.86307692 65.3134328,7.28717949 65.4179104,7.45076923 C65.4925373,7.58461538 65.7014925,7.94153846 66.0447761,8.52153846 L66.1044776,8.52153846 C66.0746269,8.35794872 66.0447761,7.8374359 66.0447761,6.98974359 L66.0447761,0.193333333 L67.8208955,0.193333333 L67.8208955,10.7225641 L65.7761194,10.7225641 C62.7014925,5.99333333 61.119403,3.52461538 61.0149254,3.36102564 C60.6716418,2.81076923 60.4626866,2.45384615 60.3880597,2.29025641 L60.3283582,2.29025641 C60.358209,2.49846154 60.3880597,3.09333333 60.3880597,4.07487179 L60.3880597,10.7225641 L58.6119403,10.7225641 L58.6119403,0.193333333 Z" id="Shape"></path>
                    <path d="M79.7761194,3.16769231 L77.9402985,3.62871795 C77.5223881,2.33487179 76.6119403,1.65076923 75.2238806,1.59128205 C73.2686567,1.72512821 72.2238806,3.01897436 72.0895522,5.47282051 C72.1940299,7.92666667 73.238806,9.23538462 75.2238806,9.41384615 C76.8208955,9.41384615 77.7761194,8.55128205 78.0447761,6.81128205 L79.880597,7.37641026 C79.358209,9.72615385 77.8059701,10.9010256 75.2238806,10.9010256 C71.9850746,10.7225641 70.2686567,8.92307692 70.0895522,5.47282051 C70.2686567,2.0374359 71.9701493,0.208205128 75.2238806,0 C77.5223881,0.0892307692 79.0447761,1.14512821 79.7761194,3.16769231 Z" id="Shape"></path>
                    <polygon id="Shape" points="89.2537313 10.7374359 81.6716418 10.7374359 81.6716418 0.208205128 83.5074627 0.208205128 83.5074627 9.30974359 89.2686567 9.30974359 89.2686567 10.7374359"></polygon>
                    <path d="M95.7313433,0.0446153846 C99.0149254,0.252820513 100.776119,2.08205128 101.014925,5.5174359 C100.880597,8.96769231 99.0895522,10.7523077 95.6716418,10.8861538 C92.3283582,10.6779487 90.5671642,8.89333333 90.3880597,5.5174359 C90.5671642,2.00769231 92.358209,0.178461538 95.7313433,0.0446153846 Z M95.6268657,9.39897436 C97.7910448,9.29487179 98.9104478,8.00102564 98.9701493,5.5174359 C98.8656716,3.03384615 97.761194,1.71025641 95.6716418,1.57641026 C93.5820896,1.75487179 92.4626866,3.06358974 92.3283582,5.5174359 C92.4477612,7.97128205 93.5373134,9.26512821 95.6268657,9.39897436 Z" id="Shape"></path>
                    <path d="M102.850746,6.27589744 L102.850746,0.148717949 L104.731343,0.148717949 L104.731343,6.29076923 C104.731343,8.37282051 105.656716,9.41384615 107.507463,9.41384615 C109.358209,9.41384615 110.283582,8.35794872 110.283582,6.24615385 L110.283582,0.148717949 L112.119403,0.148717949 L112.119403,6.18666667 C112.119403,9.32461538 110.552239,10.8861538 107.41791,10.8861538 C104.373134,10.8861538 102.850746,9.35435897 102.850746,6.27589744 Z" id="Shape"></path>
                    <path d="M118.014925,10.7374359 L114.402985,10.7374359 L114.402985,0.148717949 L117.955224,0.148717949 C121.61194,0.223076923 123.477612,1.97794872 123.552239,5.41333333 C123.671642,9.05692308 121.820896,10.8266667 118.014925,10.7374359 Z M117.910448,1.68051282 L116.238806,1.68051282 L116.238806,9.29487179 L117.865672,9.29487179 C120.373134,9.29487179 121.626866,8.00102564 121.626866,5.41333333 C121.567164,2.98923077 120.328358,1.75487179 117.910448,1.68051282 Z" id="Shape"></path>
                    <g transform="translate(9.253731, 0.148718)" id="Shape">
                        <polygon points="8.62686567 10.5887179 10.5970149 10.5887179 6.76119403 0.0594871795 3.88059701 0.0594871795 0.0447761194 10.5887179 2.02985075 10.5887179 4.67164179 3.34615385 5.97014925 3.34615385"></polygon>
                        <polygon points="5.76119403 7.30205128 4.88059701 7.30205128 3.67164179 10.5887179 6.97014925 10.5887179"></polygon>
                    </g>
                    <g transform="translate(46.716418, 0.148718)" id="Shape">
                        <polygon points="8.6119403 10.6184615 10.5970149 10.6184615 6.76119403 0.104102564 3.88059701 0.104102564 0.0298507463 10.6184615 2.01492537 10.6184615 4.65671642 3.39076923 5.97014925 3.39076923"></polygon>
                        <polygon points="5.76119403 7.33179487 4.86567164 7.33179487 3.67164179 10.6184615 6.97014925 10.6184615"></polygon>
                    </g>
                </g>
            </g>
        </g>
    </g>
</svg>