<?xml version="1.0" encoding="utf-8"?>
<!-- Generator: Adobe Illustrator 15.0.0, SVG Export Plug-In . SVG Version: 6.00 Build 0)  -->
<!DOCTYPE svg PUBLIC "-//W3C//DTD SVG 1.1//EN" "http://www.w3.org/Graphics/SVG/1.1/DTD/svg11.dtd">
<svg version="1.1" id="图层_1" xmlns="http://www.w3.org/2000/svg" xmlns:xlink="http://www.w3.org/1999/xlink" x="0px" y="0px"
	 width="56px" height="35px" viewBox="0 0 56 35" enable-background="new 0 0 56 35" xml:space="preserve">
<g>
	<g>
		<path fill-rule="evenodd" clip-rule="evenodd" fill="#D3EBFD" d="M42,7c-0.089,0-0.175,0.012-0.264,0.013
			C38.646,2.77,33.652,0,28,0c-5.652,0-10.646,2.77-13.736,7.013C14.175,7.012,14.089,7,14,7C6.268,7,0,13.268,0,21
			c0,7.732,6.268,14,14,14l2.43-5.346C15.655,29.871,14.844,30,14,30c-4.971,0-9-4.029-9-9s4.029-9,9-9
			c1.011,0,1.98,0.174,2.887,0.482C18.673,8.095,22.973,5,28,5s9.327,3.095,11.113,7.482C40.021,12.174,40.988,12,42,12
			c4.971,0,9,4.029,9,9s-4.029,9-9,9c-0.844,0-1.655-0.129-2.43-0.346L42,35c7.732,0,14-6.268,14-14C56,13.268,49.732,7,42,7z
			 M18,35h20L28,17L18,35z M25,31l3-5l3,5H25z"/>
	</g>
</g>
</svg>
