<?xml version="1.0" encoding="utf-8"?>
<!-- Generator: Adobe Illustrator 15.0.0, SVG Export Plug-In . SVG Version: 6.00 Build 0)  -->
<!DOCTYPE svg PUBLIC "-//W3C//DTD SVG 1.1//EN" "http://www.w3.org/Graphics/SVG/1.1/DTD/svg11.dtd">
<svg version="1.1" id="图层_1" xmlns="http://www.w3.org/2000/svg" xmlns:xlink="http://www.w3.org/1999/xlink" x="0px" y="0px"
	 width="56px" height="35px" viewBox="0 0 56 35" enable-background="new 0 0 56 35" xml:space="preserve">
<g>
	<g>
		<path fill-rule="evenodd" clip-rule="evenodd" fill="#FFFFFF" d="M28.5,30c-1.381,0-2.5,1.119-2.5,2.5s1.119,2.5,2.5,2.5
			s2.5-1.119,2.5-2.5S29.881,30,28.5,30z M21.5,30c-1.381,0-2.5,1.119-2.5,2.5s1.119,2.5,2.5,2.5s2.5-1.119,2.5-2.5
			S22.881,30,21.5,30z M42,7c-0.089,0-0.175,0.012-0.264,0.013C38.646,2.77,33.652,0,28,0c-5.652,0-10.646,2.77-13.736,7.013
			C14.175,7.012,14.089,7,14,7C6.268,7,0,13.268,0,21s6.268,14,14,14h2v-5.226C15.356,29.921,14.688,30,14,30c-4.971,0-9-4.029-9-9
			s4.029-9,9-9c1.011,0,1.98,0.174,2.887,0.482C18.673,8.095,22.973,5,28,5s9.327,3.095,11.113,7.482C40.021,12.174,40.988,12,42,12
			c4.971,0,9,4.029,9,9s-4.029,9-9,9c-0.338,0-0.672-0.021-1-0.057V35h1c7.732,0,14-6.268,14-14S49.732,7,42,7z M28.5,23
			c-1.381,0-2.5,1.119-2.5,2.5s1.119,2.5,2.5,2.5s2.5-1.119,2.5-2.5S29.881,23,28.5,23z M35.5,30c-1.381,0-2.5,1.119-2.5,2.5
			s1.119,2.5,2.5,2.5s2.5-1.119,2.5-2.5S36.881,30,35.5,30z"/>
	</g>
</g>
</svg>
