<?xml version="1.0" encoding="utf-8"?>
<!-- Generator: Adobe Illustrator 15.0.0, SVG Export Plug-In . SVG Version: 6.00 Build 0)  -->
<!DOCTYPE svg PUBLIC "-//W3C//DTD SVG 1.1//EN" "http://www.w3.org/Graphics/SVG/1.1/DTD/svg11.dtd">
<svg version="1.1" id="图层_1" xmlns="http://www.w3.org/2000/svg" xmlns:xlink="http://www.w3.org/1999/xlink" x="0px" y="0px"
	 width="56px" height="36px" viewBox="0 0 56 36" enable-background="new 0 0 56 36" xml:space="preserve">
<g>
	<g>
		<path fill-rule="evenodd" clip-rule="evenodd" fill="#FFFFFF" d="M18,28.652v5c2.034,1.223,4.951,2.061,8.26,2.283
			c0.267,0.015,0.531,0.032,0.804,0.041c0.059,0.002,0.118,0.003,0.177,0.004c0.445,0.012,0.896,0.014,1.355,0.005
			c0.035-0.001,0.071-0.002,0.106-0.003c0.381-0.01,0.767-0.031,1.153-0.057c0.218-0.016,0.438-0.028,0.651-0.049
			c0.082-0.008,0.165-0.019,0.247-0.026c2.89-0.312,5.422-1.102,7.246-2.198v-5C35.615,30.086,32.021,31,28,31
			C23.978,31,20.385,30.086,18,28.652z M28,22c-5.523,0-10,1.119-10,2.5S22.477,27,28,27c5.523,0,10-1.119,10-2.5S33.523,22,28,22z
			 M42,7c-0.089,0-0.175,0.012-0.264,0.013C38.646,2.77,33.652,0,28,0c-5.652,0-10.646,2.77-13.736,7.013
			C14.175,7.012,14.089,7,14,7C6.268,7,0,13.268,0,21c0,7.732,6.268,14,14,14h1v-5.057C14.671,29.979,14.338,30,14,30
			c-4.971,0-9-4.029-9-9s4.029-9,9-9c1.011,0,1.98,0.174,2.887,0.481C18.673,8.095,22.972,5,28,5c5.027,0,9.327,3.095,11.113,7.482
			C40.021,12.174,40.988,12,42,12c4.971,0,9,4.029,9,9s-4.029,9-9,9c-0.338,0-0.672-0.021-1-0.057V35h1c7.732,0,14-6.268,14-14
			C56,13.268,49.732,7,42,7z"/>
	</g>
</g>
</svg>
