<?xml version="1.0" encoding="utf-8"?>
<!-- Generator: Adobe Illustrator 15.0.0, SVG Export Plug-In . SVG Version: 6.00 Build 0)  -->
<!DOCTYPE svg PUBLIC "-//W3C//DTD SVG 1.1//EN" "http://www.w3.org/Graphics/SVG/1.1/DTD/svg11.dtd">
<svg version="1.1" id="图层_1" xmlns="http://www.w3.org/2000/svg" xmlns:xlink="http://www.w3.org/1999/xlink" x="0px" y="0px"
	 width="12px" height="32px" viewBox="0 0 12 32" enable-background="new 0 0 12 32" xml:space="preserve">
<path fill-rule="evenodd" clip-rule="evenodd" fill="#20A0FF" d="M10,0c1.104,0,2,0.896,2,2v28c0,1.104-0.896,2-2,2H0V0H10z"/>
<path fill-rule="evenodd" clip-rule="evenodd" fill="#FFFFFF" d="M8.738,11.882L4.81,15.998l3.98,4.171l0,0
	C8.92,20.311,9,20.502,9,20.714C9,21.148,8.664,21.5,8.25,21.5c-0.202,0-0.386-0.084-0.521-0.221l0,0l-4.5-4.714l0,0
	C3.088,16.423,3,16.222,3,16c0-0.001,0-0.001,0-0.002c0,0,0-0.001,0-0.002c0-0.222,0.088-0.422,0.229-0.565l0,0l4.5-4.714
	l0.002,0.002C7.866,10.583,8.049,10.5,8.25,10.5C8.664,10.5,9,10.852,9,11.285C9,11.523,8.898,11.737,8.738,11.882z"/>
</svg>
