<?xml version="1.0" encoding="utf-8"?>
<!-- Generator: Adobe Illustrator 15.0.0, SVG Export Plug-In . SVG Version: 6.00 Build 0)  -->
<!DOCTYPE svg PUBLIC "-//W3C//DTD SVG 1.1//EN" "http://www.w3.org/Graphics/SVG/1.1/DTD/svg11.dtd">
<svg version="1.1" id="图层_1" xmlns="http://www.w3.org/2000/svg" xmlns:xlink="http://www.w3.org/1999/xlink" x="0px" y="0px"
	 width="12px" height="32px" viewBox="0 0 12 32" enable-background="new 0 0 12 32" xml:space="preserve">
<path fill-rule="evenodd" clip-rule="evenodd" fill="#20A0FF" d="M10,0c1.104,0,2,0.896,2,2v28c0,1.104-0.896,2-2,2H0V0H10z"/>
<path fill-rule="evenodd" clip-rule="evenodd" fill="#FFFFFF" d="M3,11.285C3,10.852,3.336,10.5,3.75,10.5
	c0.201,0,0.384,0.083,0.519,0.219l0.002-0.002l4.5,4.714l0,0C8.912,15.574,9,15.774,9,15.996c0,0.001,0,0.002,0,0.002
	C9,15.999,9,15.999,9,16c0,0.222-0.088,0.423-0.229,0.565l0,0l-4.5,4.714l0,0C4.136,21.416,3.952,21.5,3.75,21.5
	C3.336,21.5,3,21.148,3,20.714c0-0.212,0.08-0.403,0.21-0.545l0,0l3.98-4.171l-3.929-4.116C3.102,11.737,3,11.523,3,11.285z"/>
</svg>
